<svg xmlns="http://www.w3.org/2000/svg" viewBox="0 90 612 612"><g fill="#F7761F"><path d="M422.8 372.4c13.4 0 26 3.1 37.8 9.3 12.1 6.4 22.1 15.7 29.9 27.3 7.5 11.8 11.8 24.4 13.4 38.1.3 2.8.3 5.7.3 8.5 0 18.8-7.2 35.8-21.4 51.5-16.5 18.3-35.3 28-56.6 29.1h-3.6c-12.1 0-24.2-3.1-35.8-9.3-13.1-6.7-23.7-16.2-31.9-28.3-8.5-11.8-13.1-24.7-13.6-38.6v-4.1c0-13.6 3.3-26.5 9.8-38.6 6.9-13.4 16.7-24.2 29.3-32.2 12.4-8.2 26-12.4 40.7-12.6.7-.1 1.2-.1 1.7-.1zm.8-67.9c-27 0-51.7 6.2-74.9 18.3-23.7 12.4-42.5 29.6-56.4 51.7-14.2 22.1-21.4 46.6-22.1 73.3v5.7c0 18.8 3.1 36.5 9 53 6.7 18.5 17 34.7 30.9 49.1 13.9 14.2 30.1 25.5 49.1 33.7s39.9 12.6 62.8 13.4h4.1c25.2 0 49.1-6.2 71.5-18.3 23.7-12.9 42.5-30.6 56.6-53 14.2-22.4 21.4-47.3 22.1-74.9v-1.3c0-27-6.4-51.7-19.6-74.4-13.4-22.9-31.7-41.2-55.1-55.1-23.7-13.9-49.4-20.8-76.9-21.1-.4-.1-.9-.1-1.1-.1z"/><path d="M354.9 324c-26.8-20.3-136.6-103.7-199.7-151.6 1.5-5.1 2.6-10.6 2.6-16.2-.3-33.7-27.6-61.2-61.6-61.2C62.5 95 35 122.5 35 156.2c0 34 27.5 61.2 61.2 61.2 11.6 0 22.1-3.3 31.4-9l12.9 9.8 178.6 128.7 35.8-22.9zm-19.1 244c6.9 6.2 8.2 4.6 8.2 4.6m-124.2 55.3l29.6 29.6 87.7-87.7-29.6-29.6-87.7 87.7z"/><path d="M193.3 615.6c-9 9-13.9 20.8-13.9 33.5s4.9 24.4 13.9 33.5c9 9 20.8 13.9 33.5 13.9 12.6 0 24.4-4.9 33.5-13.9 9-9 13.9-20.8 13.9-33.5s-4.9-24.4-13.9-33.5c-9-9-20.8-13.9-33.5-13.9s-24.5 4.9-33.5 13.9m252.7-305v-77.5c19.3-8.7 32.7-27.8 32.7-50.4 0-30.6-24.7-55.3-55.3-55.3S368 152.1 368 182.7c0 22.4 13.4 41.7 32.7 50.4v77.5H446z"/></g></svg>