<svg xmlns="http://www.w3.org/2000/svg" viewBox="0 0 118 149"><path d="M41.57 56.146c0-22.163 12.008-30.054 23.24-30.054 13.787 0 23.048 11.99 23.048 29.847 0 20.367-11.782 29.465-23.435 29.465-15.713 0-22.853-15.184-22.853-29.26v.002zM70.347.018c-16.39 0-25.88 7.434-30.457 12.564-.55-4.423-3.436-10.163-14.71-10.163H.686v25.868h10.039c1.702 0 2.25.544 2.25 2.26v118.126h29.187V104.34c0-1.196-.022-2.316-.054-3.315 4.555 4.216 13.268 10.042 26.87 10.042 28.53 0 48.487-22.825 48.487-55.52 0-33.215-18.944-55.53-47.118-55.53v.001z" fill="#26292C"/></svg>