<svg xmlns="http://www.w3.org/2000/svg" viewBox="0 0 1000 700"><path d="M416.223 76.763c32.22-33.57 77.074-54.39 126.683-54.39 65.945 0 123.48 36.772 154.12 91.36 26.625-11.896 56.097-18.513 87.106-18.513 118.94 0 215.368 97.267 215.368 217.247 0 119.994-96.428 217.26-215.368 217.26-14.516 0-28.704-1.45-42.422-4.225-26.982 48.128-78.398 80.645-137.413 80.645-24.704 0-48.07-5.706-68.877-15.853-27.35 64.338-91.077 109.45-165.347 109.45-77.344 0-143.26-48.94-168.563-117.576-11.058 2.35-22.513 3.572-34.268 3.572C75.155 585.74.5 510.317.5 417.262c0-62.36 33.542-116.806 83.378-145.936-10.26-23.61-15.967-49.666-15.967-77.06C67.91 87.25 154.79.5 261.95.5c62.914 0 118.827 29.913 154.275 76.263" fill="#00A1E0"/></svg>