<svg xmlns="http://www.w3.org/2000/svg" viewBox="0 0 204 206"><path d="M15.4 1.4C9.3 3.3 5.2 6.8 2.5 12.5L0 17.6l.2 86.5.3 86.6 3 4.8c2.1 3.5 4.5 5.6 8 7.4l4.9 2.6h172.1l4.8-2.8c2.6-1.5 6-4.7 7.5-6.9l2.7-4.2V14.4l-2.7-4.2c-1.5-2.2-4.9-5.4-7.5-6.9L188.5.5 104 .3C37.3.1 18.6.4 15.4 1.4zm115.1 45c4.4 1.5 8.4 3.1 8.9 3.6s-.6 4.3-2.5 8.9c-2.6 6.2-3.8 7.9-4.9 7.4-28.8-12.7-50-5.5-57.7 19.6-2.6 8.6-2.4 27.6.5 36.6 2.9 9.4 8.2 16.2 15.6 19.9 9.7 5 25.6 4.7 43.9-1 1.6-.5 1.8.2 1.5 8.3l-.3 8.8-6.5 1.8c-4.1 1.2-11.3 2.1-19.5 2.4-20.6.8-31.7-2.8-42.5-13.6-10.5-10.5-15.2-24.6-15.3-45.6 0-20.8 4.8-34.1 16.2-45.6 11.5-11.5 21.9-15.1 41.6-14.5 10.9.3 14.3.7 21 3z" fill="#D15553"/></svg>