<svg xmlns="http://www.w3.org/2000/svg" viewBox="0 0 15 18"><g fill="none"><g fill="#FFF"><path d="M14.994 6.782c-.015-.413-1.38-2.789-1.64-2.782-1.166.029-6.868 5.86-8.228 7.382-.87.974 1.211 1.555 1.47 2.972v3.204c5.481-2.741 8.551-6.705 8.398-10.776z"/><ellipse cx="7.5" cy="7.25" rx="7.5" ry="7.25"/></g><g transform="translate(1 1)" fill="#0A8D80"><path d="M6.483 14.898c4.464-2.371 6.635-5.317 6.51-8.838-.012-.357-1.124-2.412-1.335-2.406-.95.025-2.582 5.102-3.69 6.419-.708.842-1.203 1.69-1.485 2.543v2.282z"/><ellipse cx="6.484" cy="6.344" rx="6.484" ry="6.25"/></g><path d="M7.497 3.75c.556 0 1.06.092 1.528.285.469.192.869.443 1.207.77.339.325.6.702.79 1.137a3.4 3.4 0 01.287 1.38c0 .257-.031.513-.096.761a1.785 1.785 0 01-.286.62 1.41 1.41 0 01-.477.418 1.4 1.4 0 01-.66.15c-.244 0-.47-.058-.66-.175a1.228 1.228 0 01-.46-.51 1.619 1.619 0 01-.565.51 1.689 1.689 0 01-.79.176 1.888 1.888 0 01-1.337-.536 1.873 1.873 0 01-.409-.602 2 2 0 01-.147-.77c0-.276.052-.535.147-.77.19-.45.55-.806.999-.995a1.85 1.85 0 01.703-.142c.243 0 .47.05.66.142.191.092.356.218.487.368h.06v-.376h.825v2.35c0 .151.043.285.13.41.087.126.226.193.408.193a.458.458 0 00.313-.11.808.808 0 00.2-.292 1.44 1.44 0 00.104-.401c.018-.151.026-.302.026-.444a2.7 2.7 0 00-.226-1.079 3.005 3.005 0 00-.625-.895 3.066 3.066 0 00-2.136-.836 3.2 3.2 0 00-1.172.217c-.35.136-.672.337-.947.594A2.758 2.758 0 004.51 7.33c0 .41.078.786.234 1.137.157.352.373.644.652.895a3.079 3.079 0 002.092.812c.478 0 .895-.1 1.268-.293l.304.736a3.856 3.856 0 01-1.563.319c-.556 0-1.06-.093-1.537-.285a3.805 3.805 0 01-1.216-.77 3.446 3.446 0 01-1.086-2.535 3.482 3.482 0 011.086-2.543 3.67 3.67 0 011.216-.77c.46-.192.973-.284 1.537-.284v.001zm-.122 4.718c.28 0 .55-.101.756-.284a.847.847 0 00.234-.334 1.1 1.1 0 00.087-.46 1.1 1.1 0 00-.087-.461 1.07 1.07 0 00-.234-.334 1.138 1.138 0 00-.756-.285c-.28 0-.55.102-.755.285a.873.873 0 00-.235.342 1.08 1.08 0 00-.087.452c-.007.298.11.586.322.795a1.142 1.142 0 00.755.284z" fill="#F5F5F5"/></g></svg>