<svg xmlns="http://www.w3.org/2000/svg" viewBox="0 0 13 15"><g fill="none"><ellipse fill="#3FA59B" cx="6.484" cy="6.25" rx="6.484" ry="6.25"/><ellipse fill="#0A7870" cx="6.484" cy="6.438" rx="6.484" ry="6.25"/><path d="M6.483 14.992c4.464-2.372 6.635-5.317 6.51-8.838C12.938 4.545 9.91 8.125 8.998 8.9c-.722.614-1.56 1.884-2.514 3.81v2.283z" fill="#0A7870"/><path d="M6.483 14.898c4.464-2.371 6.635-5.317 6.51-8.838-.012-.357-.124-1.412-.335-1.406-.95.025-3.582 4.102-4.69 5.419-.708.842-1.203 1.69-1.485 2.543v2.282z" fill="#0A8D80"/><ellipse fill="#0A8D80" cx="6.484" cy="6.344" rx="6.484" ry="6.25"/><path d="M8.547 13.648L3.44 8.554c-.882-2.574-.592-4.312.871-5.215 1.463-.903 3.118-.734 4.964.505l3.597 3.898-4.324 5.906z" fill="#078276"/><path d="M12.87 7.742c-.453 2.286-1.894 4.255-4.322 5.906.048-.493.282-1.037.498-1.557.398-.962 1.673-2.412 3.824-4.349z" fill="#078276"/><path d="M6.513 2.844a3.94 3.94 0 011.522.283 3.75 3.75 0 011.202.766c.337.325.596.7.787 1.134.19.432.285.89.285 1.374 0 .255-.031.51-.095.758a1.78 1.78 0 01-.286.617c-.13.175-.285.316-.475.416-.19.1-.407.15-.657.15-.242 0-.467-.059-.658-.175a1.22 1.22 0 01-.458-.508 1.612 1.612 0 01-.562.508 1.682 1.682 0 01-.787.175A1.88 1.88 0 015 7.809a1.865 1.865 0 01-.406-.6 1.991 1.991 0 01-.146-.766c0-.275.051-.534.146-.767a1.865 1.865 0 01.995-.991c.221-.093.46-.14.7-.142.242 0 .467.05.657.142.19.092.355.217.485.367h.06v-.375h.822v2.34c0 .15.043.284.13.409.086.125.224.191.406.191a.456.456 0 00.311-.108.805.805 0 00.199-.292c.052-.116.086-.258.103-.4.018-.15.026-.3.026-.44 0-.376-.077-.734-.224-1.076a2.992 2.992 0 00-.623-.891 3.053 3.053 0 00-2.127-.833 3.19 3.19 0 00-1.167.216 2.926 2.926 0 00-.943.592 2.746 2.746 0 00-.864 2.024c0 .408.077.783.233 1.133.156.35.372.642.649.891a3.07 3.07 0 002.083.809c.476 0 .891-.1 1.263-.292l.302.733A3.84 3.84 0 016.513 10a4.026 4.026 0 01-1.53-.284 3.788 3.788 0 01-1.21-.766 3.431 3.431 0 01-1.081-2.524 3.467 3.467 0 011.08-2.533 3.655 3.655 0 011.21-.766 3.925 3.925 0 011.531-.283zm-.12 4.698c.278 0 .547-.101.751-.283a.844.844 0 00.234-.333c.06-.134.086-.283.086-.458 0-.175-.026-.325-.086-.459a1.065 1.065 0 00-.234-.333 1.133 1.133 0 00-.752-.283c-.279 0-.547.101-.752.283a.87.87 0 00-.234.342c-.06.142-.09.295-.086.45a1.074 1.074 0 00.32.79.97.97 0 00.345.21c.13.05.269.074.407.074z" fill="#1E6C67"/><path d="M6.497 2.75c.556 0 1.06.092 1.528.285.469.192.869.443 1.207.77.339.325.6.702.79 1.137a3.4 3.4 0 01.287 1.38c0 .257-.031.513-.096.761a1.785 1.785 0 01-.286.62 1.41 1.41 0 01-.477.418 1.4 1.4 0 01-.66.15c-.244 0-.47-.058-.66-.175a1.228 1.228 0 01-.46-.51 1.619 1.619 0 01-.565.51 1.689 1.689 0 01-.79.176 1.888 1.888 0 01-1.337-.536 1.873 1.873 0 01-.409-.602 2 2 0 01-.147-.77c0-.276.052-.535.147-.77a1.873 1.873 0 01.999-.995 1.85 1.85 0 01.703-.142c.243 0 .47.05.66.142.191.092.356.218.487.368h.06v-.376h.825v2.35c0 .151.043.285.13.41.087.126.226.193.408.193a.458.458 0 00.313-.11.808.808 0 00.2-.292 1.44 1.44 0 00.104-.401c.018-.151.026-.302.026-.444a2.7 2.7 0 00-.226-1.079 3.005 3.005 0 00-.625-.895 3.066 3.066 0 00-2.136-.836 3.2 3.2 0 00-1.172.217 2.938 2.938 0 00-.947.594A2.758 2.758 0 003.51 6.33c0 .41.078.786.234 1.137.157.352.373.644.652.895a3.079 3.079 0 002.092.812c.478 0 .895-.1 1.268-.293l.304.736a3.856 3.856 0 01-1.563.319c-.556 0-1.06-.093-1.537-.285a3.805 3.805 0 01-1.216-.77 3.446 3.446 0 01-1.086-2.535 3.482 3.482 0 011.086-2.543 3.67 3.67 0 011.216-.77c.46-.192.973-.284 1.537-.284zm-.122 4.718c.28 0 .55-.101.756-.284a.847.847 0 00.234-.334 1.1 1.1 0 00.087-.46 1.1 1.1 0 00-.087-.461 1.07 1.07 0 00-.234-.334 1.138 1.138 0 00-.756-.285c-.28 0-.55.102-.755.285a.873.873 0 00-.235.342 1.08 1.08 0 00-.087.452 1.078 1.078 0 00.322.795.973.973 0 00.347.21c.13.05.27.074.408.074z" fill="#F5F5F5"/></g></svg>